<svg xmlns="http://www.w3.org/2000/svg" width="183" height="161" viewBox="0 0 183 161">
  <g id="Group_386" data-name="Group 386" transform="translate(-1494 -5166)">
    <path id="Path_620" data-name="Path 620" d="M18.5,5.88V20h2.36V14.22h2.86L27.14,20h2.8l-3.88-6.24A3.669,3.669,0,0,0,29,9.92,3.8,3.8,0,0,0,28,7.2a5,5,0,0,0-3.84-1.32Zm2.36,1.9h3.16c1.86,0,2.56.94,2.56,2.18,0,1.5-.7,2.36-2.56,2.36H20.86Zm19.5,7.52c.06-.62.08-1.04.08-1.28,0-2.66-1.56-4.64-4.36-4.64-3.02,0-4.88,2.4-4.88,5.62,0,2.98,1.58,5.22,5.14,5.22a6.4,6.4,0,0,0,3.88-1.2l-.68-1.58a5.726,5.726,0,0,1-3.18,1.02c-2.14,0-2.8-1.58-2.9-3.16Zm-4.3-4.24c1.46,0,2.24,1.14,2.24,2.78H33.5C33.74,12.08,34.68,11.06,36.06,11.06ZM49.62,9.92a8.876,8.876,0,0,0-3.2-.58c-2.32,0-3.98,1.02-3.98,3.06,0,1.9,1.62,2.7,2.88,3.08,1.54.46,2.52.78,2.52,1.8,0,1.04-1.1,1.34-2.12,1.34a6.619,6.619,0,0,1-3.04-.78l-.32,1.82a8.011,8.011,0,0,0,3.36.68c2.42,0,4.36-1.1,4.36-3.32,0-2.02-1.64-2.74-3.02-3.12-1.48-.4-2.42-.7-2.42-1.68,0-.88.8-1.18,1.72-1.18a7.447,7.447,0,0,1,2.92.68ZM61.22,20l-.2-1.88V9.6H58.8v6.64a2.138,2.138,0,0,1-2.24,2.12,1.961,1.961,0,0,1-1.54-.56,1.841,1.841,0,0,1-.46-1.28V9.6H52.34v6.6a4.19,4.19,0,0,0,.94,3.04,3.5,3.5,0,0,0,2.58.98,3.271,3.271,0,0,0,3.1-1.88l.2,1.66Zm2.8-10.4.2,1.88V20h2.22V13.38a2.077,2.077,0,0,1,2.12-2.14,1.682,1.682,0,0,1,1.8,1.86V20H72.6V13.38a2.081,2.081,0,0,1,2.14-2.14,1.692,1.692,0,0,1,1.8,1.86V20h2.24V13.4a4.2,4.2,0,0,0-.92-3.04,3.177,3.177,0,0,0-2.44-.98,3.338,3.338,0,0,0-3.04,1.76A3.1,3.1,0,0,0,69.3,9.38a3.292,3.292,0,0,0-3.02,1.88l-.2-1.66Zm26.24,5.7c.06-.62.08-1.04.08-1.28,0-2.66-1.56-4.64-4.36-4.64-3.02,0-4.88,2.4-4.88,5.62,0,2.98,1.58,5.22,5.14,5.22a6.4,6.4,0,0,0,3.88-1.2l-.68-1.58a5.726,5.726,0,0,1-3.18,1.02c-2.14,0-2.8-1.58-2.9-3.16Zm-4.3-4.24c1.46,0,2.24,1.14,2.24,2.78H83.4C83.64,12.08,84.58,11.06,85.96,11.06Z" transform="translate(1529 5272)" fill="#3eba69"/>
    <g id="Path_619" data-name="Path 619" transform="translate(1494 5166)" fill="none">
      <path d="M15,0H168a15,15,0,0,1,15,15V146a15,15,0,0,1-15,15H15A15,15,0,0,1,0,146V15A15,15,0,0,1,15,0Z" stroke="none"/>
      <path d="M 15 8 C 11.14018249511719 8 8 11.14018249511719 8 15 L 8 146 C 8 149.8598175048828 11.14018249511719 153 15 153 L 168 153 C 171.8598175048828 153 175 149.8598175048828 175 146 L 175 15 C 175 11.14018249511719 171.8598175048828 8 168 8 L 15 8 M 15 0 L 168 0 C 176.2842864990234 0 183 6.715713500976562 183 15 L 183 146 C 183 154.2842864990234 176.2842864990234 161 168 161 L 15 161 C 6.715713500976562 161 0 154.2842864990234 0 146 L 0 15 C 0 6.715713500976562 6.715713500976562 0 15 0 Z" stroke="none" fill="#3eba69"/>
    </g>
    <path id="Path_621" data-name="Path 621" d="M19.272,2.962a2,2,0,0,1,3.455,0L40.245,32.992A2,2,0,0,1,38.518,36H3.482a2,2,0,0,1-1.728-3.008Z" transform="translate(1604 5215) rotate(90)" fill="#3eba69"/>
  </g>
</svg>
