<svg xmlns="http://www.w3.org/2000/svg" width="183" height="161" viewBox="0 0 183 161">
  <g id="Group_380" data-name="Group 380" transform="translate(-346 -510)">
    <g id="Rectangle_151" data-name="Rectangle 151" transform="translate(346 510)" fill="none" stroke="#707070" stroke-width="8">
      <rect width="183" height="161" rx="15" stroke="none"/>
      <rect x="4" y="4" width="175" height="153" rx="11" fill="none"/>
    </g>
    <path id="Path_618" data-name="Path 618" d="M-25.57-14.12V0h2.36V-6.18h6.22V0h2.36V-14.12h-2.36v6h-6.22v-6ZM-7.05-8.76c2.02,0,2.5,1.74,2.5,3.52,0,1.96-.54,3.6-2.5,3.6-2.04,0-2.5-1.82-2.5-3.6C-9.55-7.18-8.99-8.76-7.05-8.76Zm.02-1.86c-3.04,0-4.84,2.28-4.84,5.38C-11.87-1.9-9.99.22-7.03.22c3.06,0,4.8-2.4,4.8-5.46C-2.25-8.52-4.11-10.62-7.03-10.62Zm7.12.22.2,1.88V0H2.51V-6.62A2.077,2.077,0,0,1,4.63-8.76,1.682,1.682,0,0,1,6.43-6.9V0H8.67V-6.62a2.081,2.081,0,0,1,2.14-2.14,1.692,1.692,0,0,1,1.8,1.86V0h2.24V-6.6a4.2,4.2,0,0,0-.92-3.04,3.177,3.177,0,0,0-2.44-.98A3.338,3.338,0,0,0,8.45-8.86a3.1,3.1,0,0,0-3.08-1.76A3.292,3.292,0,0,0,2.35-8.74l-.2-1.66ZM26.33-4.7c.06-.62.08-1.04.08-1.28,0-2.66-1.56-4.64-4.36-4.64-3.02,0-4.88,2.4-4.88,5.62,0,2.98,1.58,5.22,5.14,5.22a6.4,6.4,0,0,0,3.88-1.2l-.68-1.58a5.726,5.726,0,0,1-3.18,1.02c-2.14,0-2.8-1.58-2.9-3.16Zm-4.3-4.24c1.46,0,2.24,1.14,2.24,2.78h-4.8C19.71-7.92,20.65-8.94,22.03-8.94Z" transform="translate(437.57 636)" fill="#575757"/>
    <g id="noun_return_1651212" transform="translate(414.475 553.522)">
      <g id="Group_371" data-name="Group 371" transform="translate(2.525 8.477)">
        <path id="Path_600" data-name="Path 600" d="M28.167,14.345H15.511V10.28a1.753,1.753,0,0,0-2.855-1.4L3.2,16.531a1.839,1.839,0,0,0,0,2.841l9.46,7.694a1.764,1.764,0,0,0,2.855-1.4V21.6H28.167a7.98,7.98,0,0,1,0,15.956H11.207a3.629,3.629,0,0,0,0,7.257h16.96A15.035,15.035,0,0,0,43,29.6,15.046,15.046,0,0,0,28.167,14.345Z" transform="translate(-2.525 -8.477)" fill="#575757"/>
      </g>
    </g>
  </g>
</svg>
