<svg xmlns="http://www.w3.org/2000/svg" width="183" height="161" viewBox="0 0 183 161">
  <g id="Group_381" data-name="Group 381" transform="translate(-549 -510)">
    <g id="Rectangle_152" data-name="Rectangle 152" transform="translate(549 510)" fill="none" stroke="#3eba69" stroke-width="8">
      <rect width="183" height="161" rx="15" stroke="none"/>
      <rect x="4" y="4" width="175" height="153" rx="11" fill="none"/>
    </g>
    <path id="Path_617" data-name="Path 617" d="M-10.95-13.64a11.063,11.063,0,0,0-3.86-.72c-2.96,0-5.08,1.22-5.08,4,0,3.02,2.48,3.76,4.14,4.2,1.28.36,3.08.88,3.08,2.52,0,1.52-1.48,2.04-3.02,2.04a9.159,9.159,0,0,1-3.92-.98L-20.03-.5a10.33,10.33,0,0,0,4.22.84c3.5,0,5.54-1.64,5.54-4.24,0-2.42-1.82-3.52-4.36-4.26-1.38-.4-2.9-.8-2.9-2.36,0-1.46,1.28-1.94,2.7-1.94a8.505,8.505,0,0,1,3.5.84Zm3.72.48-.26,2.76H-9.17v1.7h1.68v6.38A2.385,2.385,0,0,0-4.85.2,4.516,4.516,0,0,0-2.97-.04l.14-1.68H-4.39c-.64,0-.88-.46-.88-1V-8.7h2.36v-1.7H-5.27v-2.76ZM3.39-8.76c2.02,0,2.5,1.74,2.5,3.52,0,1.96-.54,3.6-2.5,3.6-2.04,0-2.5-1.82-2.5-3.6C.89-7.18,1.45-8.76,3.39-8.76Zm.02-1.86c-3.04,0-4.84,2.28-4.84,5.38C-1.43-1.9.45.22,3.41.22c3.06,0,4.8-2.4,4.8-5.46C8.19-8.52,6.33-10.62,3.41-10.62Zm7.12.22.2,1.88V4.4h2.22V-1.26A3.237,3.237,0,0,0,15.89.22c3.18,0,4.14-3.02,4.14-5.48,0-2.84-1.28-5.36-4.26-5.36A3.312,3.312,0,0,0,12.79-8.9l-.2-1.5Zm2.42,3.8a2.186,2.186,0,0,1,2.36-2.16c2.08,0,2.38,1.82,2.38,3.56,0,1.84-.32,3.56-2.48,3.56a2.178,2.178,0,0,1-2.26-2.12Z" transform="translate(640.03 636)" fill="#3eba69"/>
    <rect id="Rectangle_155" data-name="Rectangle 155" width="35.382" height="36.336" rx="2" transform="translate(623 562)" fill="#3eba69"/>
  </g>
</svg>
