<svg xmlns="http://www.w3.org/2000/svg" width="183" height="161" viewBox="0 0 183 161">
  <g id="Group_383" data-name="Group 383" transform="translate(-752 -510)">
    <g id="Rectangle_153" data-name="Rectangle 153" transform="translate(752 510)" fill="none" stroke="#707070" stroke-width="8">
      <rect width="183" height="161" rx="15" stroke="none"/>
      <rect x="4" y="4" width="175" height="153" rx="11" fill="none"/>
    </g>
    <path id="Path_616" data-name="Path 616" d="M-29.61-13.64a11.063,11.063,0,0,0-3.86-.72c-2.96,0-5.08,1.22-5.08,4,0,3.02,2.48,3.76,4.14,4.2,1.28.36,3.08.88,3.08,2.52,0,1.52-1.48,2.04-3.02,2.04a9.159,9.159,0,0,1-3.92-.98L-38.69-.5a10.33,10.33,0,0,0,4.22.84c3.5,0,5.54-1.64,5.54-4.24,0-2.42-1.82-3.52-4.36-4.26-1.38-.4-2.9-.8-2.9-2.36,0-1.46,1.28-1.94,2.7-1.94a8.505,8.505,0,0,1,3.5.84ZM-17.75,0l-.2-1.88V-10.4h-2.22v6.64a2.138,2.138,0,0,1-2.24,2.12,1.961,1.961,0,0,1-1.54-.56,1.841,1.841,0,0,1-.46-1.28V-10.4h-2.22v6.6a4.19,4.19,0,0,0,.94,3.04,3.5,3.5,0,0,0,2.58.98,3.271,3.271,0,0,0,3.1-1.88l.2,1.66Zm9.58-10.08a8.876,8.876,0,0,0-3.2-.58c-2.32,0-3.98,1.02-3.98,3.06,0,1.9,1.62,2.7,2.88,3.08,1.54.46,2.52.78,2.52,1.8,0,1.04-1.1,1.34-2.12,1.34a6.619,6.619,0,0,1-3.04-.78l-.32,1.82a8.011,8.011,0,0,0,3.36.68c2.42,0,4.36-1.1,4.36-3.32,0-2.02-1.64-2.74-3.02-3.12-1.48-.4-2.42-.7-2.42-1.68,0-.88.8-1.18,1.72-1.18a7.447,7.447,0,0,1,2.92.68Zm2.7-.32.2,1.88V4.4h2.22V-1.26A3.237,3.237,0,0,0-.11.22C3.07.22,4.03-2.8,4.03-5.26c0-2.84-1.28-5.36-4.26-5.36A3.312,3.312,0,0,0-3.21-8.9l-.2-1.5Zm2.42,3.8A2.186,2.186,0,0,1-.69-8.76c2.08,0,2.38,1.82,2.38,3.56,0,1.84-.32,3.56-2.48,3.56A2.178,2.178,0,0,1-3.05-3.76ZM15.03-4.7c.06-.62.08-1.04.08-1.28,0-2.66-1.56-4.64-4.36-4.64-3.02,0-4.88,2.4-4.88,5.62C5.87-2.02,7.45.22,11.01.22a6.4,6.4,0,0,0,3.88-1.2l-.68-1.58a5.726,5.726,0,0,1-3.18,1.02c-2.14,0-2.8-1.58-2.9-3.16Zm-4.3-4.24c1.46,0,2.24,1.14,2.24,2.78H8.17C8.41-7.92,9.35-8.94,10.73-8.94Zm6.78-1.46.2,1.88V0h2.22V-6.62a2.125,2.125,0,0,1,2.22-2.14,1.979,1.979,0,0,1,1.56.56,1.839,1.839,0,0,1,.44,1.3V0h2.22V-6.6a4.1,4.1,0,0,0-.94-3.04,3.414,3.414,0,0,0-2.56-.98,3.253,3.253,0,0,0-3.1,1.88l-.2-1.66Zm18.28-4.32v5.64a3.034,3.034,0,0,0-2.82-1.54c-2.98,0-4.26,2.5-4.26,5.4,0,2.42.92,5.44,4.14,5.44a3.448,3.448,0,0,0,3.1-1.68L36.15,0h1.86V-14.72Zm0,10.96a2.169,2.169,0,0,1-2.36,2.12c-2.08,0-2.38-1.84-2.38-3.6,0-1.7.3-3.52,2.38-3.52A2.2,2.2,0,0,1,35.79-6.6Z" transform="translate(843.69 636)" fill="#707070"/>
    <g id="Group_382" data-name="Group 382" transform="translate(0)">
      <rect id="Rectangle_154" data-name="Rectangle 154" width="10.382" height="36.336" rx="2" transform="translate(829 561)" fill="#575757"/>
      <rect id="Rectangle_156" data-name="Rectangle 156" width="10.382" height="36.336" rx="2" transform="translate(847.168 561)" fill="#575757"/>
    </g>
  </g>
</svg>
