<svg xmlns="http://www.w3.org/2000/svg" width="82" height="30" viewBox="0 0 82 30">
  <g id="Group_375" data-name="Group 375" transform="translate(-1178 -223)">
    <g id="Group_374" data-name="Group 374">
      <path id="Path_606" data-name="Path 606" d="M3,0H28a3,3,0,0,1,3,3V27a3,3,0,0,1-3,3H3a3,3,0,0,1-3-3V3A3,3,0,0,1,3,0Z" transform="translate(1229 223)" fill="#363636"/>
      <path id="Path_608" data-name="Path 608" d="M4.914.13A5.268,5.268,0,0,0,7.722-.546l-.247-.988a4.306,4.306,0,0,1-2.522.741c-2.288,0-3.068-2-3.068-3.809,0-2.054.91-3.8,3.068-3.8a4.355,4.355,0,0,1,2.509.754l.26-1a5.064,5.064,0,0,0-2.73-.676C2.249-9.321.741-7.15.741-4.55.741-1.82,2.223.13,4.914.13ZM8.762-9.178v.923h2.756V0h1.131V-8.255h2.756v-.923Zm8.242,0V0h1.105V-3.939h2.275L22.763,0h1.274L21.515-4.108a2.314,2.314,0,0,0,1.924-2.509A2.5,2.5,0,0,0,22.776-8.4a2.979,2.979,0,0,0-2.288-.78Zm1.105.923H20.5c1.326,0,1.82.754,1.82,1.638,0,1.118-.494,1.768-1.82,1.768H18.109Zm7.54-.923V0h5.33V-.923H26.754V-9.178Z" transform="translate(1183.259 242.321)" fill="#a3a3a3"/>
      <g id="Path_609" data-name="Path 609" transform="translate(1178 223)" fill="none">
        <path d="M3,0H40a3,3,0,0,1,3,3V27a3,3,0,0,1-3,3H3a3,3,0,0,1-3-3V3A3,3,0,0,1,3,0Z" stroke="none"/>
        <path d="M 3 1 C 1.897201538085938 1 1 1.897199630737305 1 3 L 1 27 C 1 28.1028003692627 1.897201538085938 29 3 29 L 40 29 C 41.10279846191406 29 42 28.1028003692627 42 27 L 42 3 C 42 1.897199630737305 41.10279846191406 1 40 1 L 3 1 M 3 0 L 40 0 C 41.6568489074707 0 43 1.3431396484375 43 3 L 43 27 C 43 28.65685081481934 41.6568489074707 30 40 30 L 3 30 C 1.343151092529297 30 0 28.65685081481934 0 27 L 0 3 C 0 1.3431396484375 1.343151092529297 0 3 0 Z" stroke="none" fill="#707070"/>
      </g>
      <path id="Path_607" data-name="Path 607" d="M-6.93-14.12V0h1.66V-9.74l-.1-2.94h.2L-.75,0H.75L5.17-12.68h.2l-.1,2.94V0H6.93V-14.12H4.13L.13-2.44H.01L-3.97-14.12Z" transform="translate(1244.93 245.12)" fill="#a3a3a3"/>
    </g>
  </g>
</svg>
