<svg xmlns="http://www.w3.org/2000/svg" width="145" height="40" viewBox="0 0 145 40">
  <g id="Group_373" data-name="Group 373" transform="translate(-1115 -660)">
    <g id="Group_372" data-name="Group 372">
      <path id="Path_601" data-name="Path 601" d="M3,0H142a3,3,0,0,1,3,3V37a3,3,0,0,1-3,3H3a3,3,0,0,1-3-3V3A3,3,0,0,1,3,0Z" transform="translate(1115 660)" fill="#363636"/>
      <path id="Path_604" data-name="Path 604" d="M-10.57-13.68a10.96,10.96,0,0,0-3.64-.66c-2.8,0-4.82,1.2-4.82,3.86,0,2.92,2.46,3.66,4.12,4.12,1.22.34,3.22.92,3.22,2.86,0,1.8-1.7,2.38-3.38,2.38a8.443,8.443,0,0,1-3.74-.9l-.42,1.54a9.912,9.912,0,0,0,4,.78c3.32,0,5.28-1.58,5.28-4.06s-1.96-3.5-4.32-4.2c-1.5-.44-3.06-.9-3.06-2.68,0-1.76,1.5-2.3,3.04-2.3a8.287,8.287,0,0,1,3.34.74Zm3.64.66-.2,2.74H-8.81v1.24h1.68v6.86A2.229,2.229,0,0,0-4.77.16a4.105,4.105,0,0,0,1.68-.2l.1-1.24H-4.53c-.76,0-1-.52-1-1.16v-6.6h2.44v-1.24H-5.53v-2.74ZM3.09-9.06c2.18,0,2.86,1.92,2.86,3.9,0,2.16-.76,3.94-2.86,3.94C.91-1.22.23-3.18.23-5.16.23-7.32.99-9.06,3.09-9.06Zm.02-1.38c-2.9,0-4.54,2.34-4.54,5.28C-1.43-1.98.29.16,3.11.16c2.9,0,4.5-2.44,4.5-5.32C7.61-8.26,5.91-10.44,3.11-10.44Zm7.16.16.2,1.8V4.4h1.6V-1.36A3.25,3.25,0,0,0,15.11.16c3.12,0,3.98-3.04,3.98-5.38,0-2.82-1.24-5.22-4.14-5.22a3.2,3.2,0,0,0-2.98,1.8l-.2-1.64Zm1.8,3.7a2.486,2.486,0,0,1,2.68-2.48c2.28,0,2.68,2.02,2.68,3.96,0,1.98-.42,3.88-2.84,3.88a2.48,2.48,0,0,1-2.52-2.46Z" transform="translate(1143 686)" fill="#a3a3a3"/>
      <path id="Path_602" data-name="Path 602" d="M3,0H28a3,3,0,0,1,3,3V27a3,3,0,0,1-3,3H3a3,3,0,0,1-3-3V3A3,3,0,0,1,3,0Z" transform="translate(1222 665)" fill="#575757"/>
      <path id="Path_603" data-name="Path 603" d="M-6.93-14.12V0h1.66V-9.74l-.1-2.94h.2L-.75,0H.75L5.17-12.68h.2l-.1,2.94V0H6.93V-14.12H4.13L.13-2.44H.01L-3.97-14.12Z" transform="translate(1238 688)" fill="#a3a3a3"/>
      <g id="Group_369" data-name="Group 369" transform="translate(23 442)">
        <path id="Path_605" data-name="Path 605" d="M4.914.13A5.268,5.268,0,0,0,7.722-.546l-.247-.988a4.306,4.306,0,0,1-2.522.741c-2.288,0-3.068-2-3.068-3.809,0-2.054.91-3.8,3.068-3.8a4.355,4.355,0,0,1,2.509.754l.26-1a5.064,5.064,0,0,0-2.73-.676C2.249-9.321.741-7.15.741-4.55.741-1.82,2.223.13,4.914.13ZM8.762-9.178v.923h2.756V0h1.131V-8.255h2.756v-.923Zm8.242,0V0h1.105V-3.939h2.275L22.763,0h1.274L21.515-4.108a2.314,2.314,0,0,0,1.924-2.509A2.5,2.5,0,0,0,22.776-8.4a2.979,2.979,0,0,0-2.288-.78Zm1.105.923H20.5c1.326,0,1.82.754,1.82,1.638,0,1.118-.494,1.768-1.82,1.768H18.109Zm7.54-.923V0h5.33V-.923H26.754V-9.178Z" transform="translate(1154 243)" fill="#a3a3a3"/>
        <g id="Rectangle_157" data-name="Rectangle 157" transform="translate(1148 223)" fill="none" stroke="#707070" stroke-width="1">
          <rect width="43" height="30" rx="3" stroke="none"/>
          <rect x="0.5" y="0.5" width="42" height="29" rx="2.5" fill="none"/>
        </g>
      </g>
    </g>
  </g>
</svg>