<svg xmlns="http://www.w3.org/2000/svg" width="163" height="163" viewBox="0 0 163 163">
  <g id="Group_344" data-name="Group 344" transform="translate(-665 -408)">
    <rect id="Rectangle_26" data-name="Rectangle 26" width="163" height="163" rx="20" transform="translate(665 408)" fill="#fff"/>
    <g id="amazon-music" transform="translate(694.996 459.004)">
      <path id="Path_583" data-name="Path 583" d="M61.059,42.91a5.46,5.46,0,0,1-3,.808A18.632,18.632,0,0,1,52.4,42.91a5.853,5.853,0,0,0-1.039-.231c-.346,0-.462.231-.462.693v1.154a1.674,1.674,0,0,0,.231.808,1.778,1.778,0,0,0,.693.462,15.388,15.388,0,0,0,6.234,1.154,9.051,9.051,0,0,0,5.772-1.732A5.437,5.437,0,0,0,66.023,40.6a5.264,5.264,0,0,0-1.039-3.348,8.139,8.139,0,0,0-3.463-2.193l-3.232-1.27a6.118,6.118,0,0,1-2.54-1.385,2.182,2.182,0,0,1-.693-1.732c0-1.732,1.27-2.655,3.925-2.655a13.957,13.957,0,0,1,4.387.693c.462.115.808.231.924.231.346,0,.577-.231.577-.693V27.094a1.674,1.674,0,0,0-.231-.808,1.062,1.062,0,0,0-.693-.462A16.427,16.427,0,0,0,58.75,24.9a8.912,8.912,0,0,0-5.426,1.616,5.149,5.149,0,0,0-2.078,4.271c0,2.655,1.5,4.618,4.5,5.772l3.463,1.27a6.788,6.788,0,0,1,2.309,1.27,2.009,2.009,0,0,1,.577,1.616A2.54,2.54,0,0,1,61.059,42.91Z" transform="translate(7.247 -16.935)" fill="#252f3d"/>
      <path id="Path_584" data-name="Path 584" d="M45.809,26.208V41.562a10.863,10.863,0,0,1-5.888,1.963,3.463,3.463,0,0,1-2.771-1.039,4.941,4.941,0,0,1-.808-3.232V26.208c0-.577-.231-.808-.808-.808H33.111c-.577,0-.808.231-.808.808V40.523a6.372,6.372,0,0,0,1.5,4.618,6.118,6.118,0,0,0,4.5,1.616,13.287,13.287,0,0,0,7.85-2.771l.231,1.385a.531.531,0,0,0,.346.577c.115.115.346.115.693.115h1.732c.577,0,.808-.231.808-.808V26.208c0-.577-.231-.808-.808-.808H46.733C46.04,25.4,45.809,25.746,45.809,26.208Z" transform="translate(4.373 -16.857)" fill="#252f3d"/>
      <path id="Path_585" data-name="Path 585" d="M28.66,46.258h2.424c.577,0,.808-.231.808-.808V31.02a6.072,6.072,0,0,0-1.5-4.5A5.841,5.841,0,0,0,26,24.9a13.587,13.587,0,0,0-8.081,2.886C17,25.825,15.268,24.9,12.729,24.9A13.541,13.541,0,0,0,5.11,27.556l-.231-1.27a.531.531,0,0,0-.346-.577.866.866,0,0,0-.577-.115H2.108c-.577,0-.808.231-.808.808V45.565c0,.577.231.808.808.808H4.532c.577,0,.808-.231.808-.808V29.981a11.763,11.763,0,0,1,6-1.847,2.7,2.7,0,0,1,2.424,1.039,5.172,5.172,0,0,1,.808,3V45.45c0,.577.231.808.808.808h2.424c.577,0,.808-.231.808-.808V29.981a11.336,11.336,0,0,1,6-1.847,2.7,2.7,0,0,1,2.424,1.039,5.172,5.172,0,0,1,.808,3V45.45C27.851,46.027,28.082,46.258,28.66,46.258Z" transform="translate(-0.412 -16.935)" fill="#252f3d"/>
      <path id="Path_586" data-name="Path 586" d="M91.693,57.472a101.854,101.854,0,0,1-38.788,7.965A101.946,101.946,0,0,1,2.111,51.931a1.639,1.639,0,0,0-.693-.231c-.808,0-1.27.924-.462,1.732A75.245,75.245,0,0,0,51.751,72.826c14.084,0,30.361-4.387,41.559-12.7C95.272,58.742,93.656,56.664,91.693,57.472Z" transform="translate(-0.53 -12.796)" fill="#f19d38"/>
      <path id="Path_587" data-name="Path 587" d="M79.975,30.082a6.315,6.315,0,0,1,4.964-1.732,10.678,10.678,0,0,1,3.348.462,1.72,1.72,0,0,0,.693.115c.346,0,.577-.231.577-.808V26.965a1.351,1.351,0,0,0-.231-.808,2.517,2.517,0,0,0-.577-.462A20.329,20.329,0,0,0,84.362,25a9.662,9.662,0,0,0-7.5,2.886A11.544,11.544,0,0,0,74.2,35.969c0,3.463.808,6.118,2.54,7.965a9.582,9.582,0,0,0,7.388,2.771,11.382,11.382,0,0,0,4.618-.808,1.062,1.062,0,0,0,.693-.462c.115-.115.115-.462.115-.808V43.473c0-.577-.231-.808-.577-.808a1.258,1.258,0,0,0-.577.115,14.407,14.407,0,0,1-3.694.577,6.211,6.211,0,0,1-4.849-1.732c-1.039-1.154-1.5-3-1.5-5.426v-.577C78.474,33.083,78.936,31.236,79.975,30.082Z" transform="translate(10.842 -16.921)" fill="#252f3d"/>
      <path id="Path_588" data-name="Path 588" d="M85.381,68.587c6-5.079,7.619-15.585,6.349-17.2C91.153,50.694,88.382,50,84.919,50A20.606,20.606,0,0,0,73.49,53.118c-1.039.693-.808,1.616.231,1.5,3.579-.462,11.66-1.385,13.16.462s-1.616,9.466-3,12.814C83.533,68.933,84.342,69.28,85.381,68.587Z" transform="translate(10.631 -13.059)" fill="#f19d38"/>
      <path id="Path_589" data-name="Path 589" d="M70.232,25.4H67.808c-.577,0-.808.231-.808.808V45.372c0,.577.231.808.808.808h2.424c.577,0,.808-.231.808-.808V26.209a.727.727,0,0,0-.808-.808Z" transform="translate(9.733 -16.857)" fill="#252f3d"/>
      <path id="Path_590" data-name="Path 590" d="M71,18.693A2.713,2.713,0,0,0,69.04,18a2.436,2.436,0,0,0-1.847.693,2.309,2.309,0,0,0-.693,1.732,2.182,2.182,0,0,0,.693,1.732,2.805,2.805,0,0,0,3.694,0,2.309,2.309,0,0,0,.693-1.732A2.124,2.124,0,0,0,71,18.693Z" transform="translate(9.655 -18)" fill="#252f3d"/>
    </g>
  </g>
</svg>