<svg xmlns="http://www.w3.org/2000/svg" width="163" height="163" viewBox="0 0 163 163">
  <g id="Group_341" data-name="Group 341" transform="translate(-878 -172)">
    <g id="Rectangle_28" data-name="Rectangle 28" transform="translate(878 172)" fill="#fff" stroke="#fff" stroke-width="1">
      <rect width="163" height="163" rx="20" stroke="none"/>
      <rect x="0.5" y="0.5" width="162" height="162" rx="19.5" fill="none"/>
    </g>
    <path id="Netflix_2015_logo" d="M16.225,29.835c-1.775.312-3.581.405-5.45.654L5.076,13.8V31.205c-1.775.187-3.394.436-5.076.685V0H4.734l6.478,18.094V0h5.014V29.835Zm9.81-18.156c1.931,0,4.89-.093,6.665-.093v4.983c-2.211,0-4.8,0-6.665.093v7.412c2.928-.187,5.855-.436,8.813-.53v4.8l-13.8,1.09V0h13.8V4.983H26.035v6.7Zm27.343-6.7h-5.17V27.9c-1.682,0-3.363,0-4.983.062V4.983h-5.17V0H53.379V4.983Zm8.1,6.353H68.3v4.983h-6.82v11.3h-4.89V0H70.507V4.983H61.476ZM78.6,23.264c2.834.062,5.7.28,8.471.436V28.62c-4.453-.28-8.907-.56-13.454-.654V0H78.6V23.264Zm12.675,5.7c1.588.094,3.27.187,4.889.374V0H91.279ZM118,0l-6.322,15.167L118,31.89c-1.869-.249-3.737-.592-5.606-.9l-3.581-9.218-3.643,8.471c-1.807-.312-3.551-.405-5.357-.654l6.415-14.606L100.436,0h5.356l3.27,8.377L112.55,0H118Z" transform="translate(901 238)" fill="#d81f26"/>
  </g>
</svg>