<svg fill="#FFFFFF" xmlns="http://www.w3.org/2000/svg" xmlns:xlink="http://www.w3.org/1999/xlink" version="1.1" preserveAspectRatio="none" x="0px" y="0px" viewBox="0 0 100 100"><defs><g id="a"><path fill="#FFFFFF" stroke="none" d=" M 80.25 30.45 Q 80.25 19.75 69.2 19.75 L 30.7 19.75 Q 19.8 19.75 19.8 30.65 L 19.6 69.35 Q 19.6 74.75 22.65 77.55 25.55 80.3 31.1 80.3 L 69.4 80.2 Q 80.45 80.2 80.45 69.2 L 80.25 30.45 M 69.6 22.5 Q 77.5 22.5 77.5 30.65 L 77.5 69.35 Q 77.5 77.25 69.4 77.25 L 31 77.75 Q 26.95 77.75 24.8 75.55 22.65 73.4 22.65 69.35 L 22.55 30.65 Q 22.55 22.6 30.7 22.6 L 69.6 22.5 Z"></path></g></defs><g transform="matrix( 1, 0, 0, 1, 0,0) "><use xlink:href="#a"></use></g></svg>