<svg xmlns="http://www.w3.org/2000/svg" width="163" height="163" viewBox="0 0 163 163">
  <g id="Group_343" data-name="Group 343" transform="translate(-452 -408)">
    <rect id="Rectangle_26" data-name="Rectangle 26" width="163" height="163" rx="20" transform="translate(452 408)" fill="#fff"/>
    <g id="Tubi_logo" transform="translate(331.582 290.058)">
      <path id="path2549" d="M260.283,187.681h-7.942V223.17a1.14,1.14,0,0,0,1.135,1.145h6.808a1.14,1.14,0,0,0,1.135-1.145V188.826a1.14,1.14,0,0,0-1.135-1.145m-30.634,27.476A9.159,9.159,0,1,1,238.726,206a9.118,9.118,0,0,1-9.077,9.159m0-27.476a17.946,17.946,0,0,0-7.474,1.62h0a1.164,1.164,0,0,1-.468.1,1.14,1.14,0,0,1-1.135-1.145v-13.17a1.14,1.14,0,0,0-1.135-1.145h-7.942V206a18.155,18.155,0,1,0,18.154-18.317m-59.584,33.159h0l-3.416-5.975h0a1.13,1.13,0,0,0-1.438-.476,8.978,8.978,0,0,1-3.637.765A9.118,9.118,0,0,1,152.495,206v-8.014a1.14,1.14,0,0,1,1.135-1.145h11.346a1.14,1.14,0,0,0,1.135-1.145v-6.869a1.14,1.14,0,0,0-1.135-1.145H153.629a1.139,1.139,0,0,1-1.135-1.145V175.087a1.14,1.14,0,0,0-1.135-1.145h-7.942V206a18.236,18.236,0,0,0,18.154,18.317,17.951,17.951,0,0,0,8.012-1.875,1.149,1.149,0,0,0,.516-1.533.235.235,0,0,0-.037-.065m35.757-33.159h-7.942V206a9.077,9.077,0,1,1-18.154,0V188.827a1.14,1.14,0,0,0-1.135-1.145h-7.942V206a18.155,18.155,0,1,0,36.308,0V188.827a1.14,1.14,0,0,0-1.135-1.145m51.058-13.738a4.579,4.579,0,1,0,4.538,4.579,4.559,4.559,0,0,0-4.538-4.579" transform="translate(0 0)"/>
    </g>
  </g>
</svg>