<svg xmlns="http://www.w3.org/2000/svg" width="163" height="163" viewBox="0 0 163 163">
  <g id="Group_342" data-name="Group 342" transform="translate(-239 -407)">
    <rect id="Rectangle_27" data-name="Rectangle 27" width="163" height="163" rx="20" transform="translate(239 407)" fill="#fff"/>
    <g id="Vimeo_Logo" transform="translate(260.824 468.819)">
      <path id="path4" d="M26.556,11.6q-.176,3.854-5.383,10.556-5.382,7-9.109,7-2.306,0-3.9-4.263Q7.1,20.986,6.031,17.08q-1.184-4.261-2.542-4.263a8.168,8.168,0,0,0-2.072,1.244L.176,12.46q1.953-1.716,3.851-3.437,2.607-2.25,3.912-2.371,3.08-.3,3.793,4.214.769,4.867,1.066,6.052.888,4.037,1.955,4.036.83,0,2.49-2.619a10.332,10.332,0,0,0,1.777-3.987q.237-2.261-1.777-2.262a4.915,4.915,0,0,0-1.953.433q1.945-6.374,7.433-6.2,4.068.12,3.834,5.28" transform="translate(0 4.278)" fill="#1ab7ea"/>
      <path id="path6" d="M27.686,3.129A4.169,4.169,0,0,1,26.2,5.961a5.294,5.294,0,0,1-3.791,1.533q-3.378,0-3.26-2.948A4.121,4.121,0,0,1,20.957,1.6,6.031,6.031,0,0,1,24.84.181a2.622,2.622,0,0,1,2.076.974,2.779,2.779,0,0,1,.771,1.974Zm5.156,21.077a19.977,19.977,0,0,1-4.564,5.684q-3.971,3.434-7.941,3.435a3.438,3.438,0,0,1-2.816-1.186,4.439,4.439,0,0,1-.918-3.079,27.946,27.946,0,0,1,1.213-6.042q1.156-4.086,1.157-4.382,0-1.54-1.067-1.541a6.568,6.568,0,0,0-2.016,1.244l-1.363-1.6q1.9-1.716,3.793-3.437,2.548-2.25,3.795-2.371a2.9,2.9,0,0,1,2.873,1.152,4.963,4.963,0,0,1,.682,3.454q-.771,3.6-1.66,9.151-.061,2.541,1.836,2.539.83,0,2.963-1.753a24.736,24.736,0,0,0,2.905-2.749l1.125,1.482" transform="translate(10.005 0)" fill="#1ab7ea"/>
      <path id="path8" d="M65.191,19.791a19.953,19.953,0,0,1-4.564,5.684q-3.971,3.434-7.941,3.435-3.854,0-3.734-4.265a21.42,21.42,0,0,1,.74-4.558,21.564,21.564,0,0,0,.74-4.148q.061-2.248-1.368-2.25-1.545,0-3.686,3.674a16.381,16.381,0,0,0-2.437,7.467,8.687,8.687,0,0,0,.5,3.912q-4.134.12-5.789-1.363-1.482-1.3-1.359-4.326a15.706,15.706,0,0,1,.582-3.793,15.167,15.167,0,0,0,.58-3.379c.085-1.461-.455-2.193-1.6-2.193q-1.484,0-3.2,3.379a17.211,17.211,0,0,0-1.9,7.052,12.326,12.326,0,0,0,.424,4.623q-4.068.12-5.777-1.714a6.3,6.3,0,0,1-1.3-4.669,32.455,32.455,0,0,1,.545-4.284,33.065,33.065,0,0,0,.545-4.285c.085-.708-.1-1.064-.533-1.064a6.593,6.593,0,0,0-2.016,1.2l-1.422-1.6q.3-.234,3.734-3.437,2.49-2.309,3.377-2.369a2.619,2.619,0,0,1,2.49,1.273,5.608,5.608,0,0,1,.949,3.23,4.852,4.852,0,0,1-.119,1.127A10.917,10.917,0,0,1,33.72,9.777a10.54,10.54,0,0,1,6.1-2.666q2.9-.237,4.149,1.363a5.773,5.773,0,0,1,.947,3.734c.277-.236.574-.494.891-.77a15.767,15.767,0,0,1,2.665-2.547A8.794,8.794,0,0,1,53.04,7.11q2.846-.237,4.09,1.358a5.306,5.306,0,0,1,.949,3.718,27.414,27.414,0,0,1-.8,4.813,30.75,30.75,0,0,0-.74,3.63,3.182,3.182,0,0,0,.236,1.712c.2.316.67.472,1.422.472q.83,0,2.963-1.755a24.729,24.729,0,0,0,2.905-2.748l1.127,1.48" transform="translate(14.667 4.412)" fill="#1ab7ea"/>
      <path id="path10" d="M58.187,13.448q.056-1.591-1.3-1.592-1.777,0-3.61,2.447a8.279,8.279,0,0,0-1.894,4.687,3.35,3.35,0,0,0,0,.767,13.339,13.339,0,0,0,5.03-3.243,5.731,5.731,0,0,0,1.775-3.067Zm13.453,6.188q-1.718,2.844-6.756,5.682a25.317,25.317,0,0,1-12.742,3.608q-4.8,0-6.875-3.2a8.77,8.77,0,0,1-1.422-5.214q.059-4.8,4.268-9.125a14.734,14.734,0,0,1,10.9-4.742q5.809,0,6.164,4.73.237,3.014-3.32,6.208a18.047,18.047,0,0,1-9.541,4.433,3.681,3.681,0,0,0,3.2,1.478,23.682,23.682,0,0,0,9.305-2.171,24.775,24.775,0,0,0,5.69-3.167l1.125,1.478" transform="translate(30.442 4.507)" fill="#1ab7ea"/>
      <path id="path12" d="M72.263,15.576a7.479,7.479,0,0,0-.445-2.939C71.482,11.748,71,11.3,70.367,11.3q-3.024,0-4.978,3.267a11.46,11.46,0,0,0-1.779,5.7,5.068,5.068,0,0,0,.533,2.614,2.009,2.009,0,0,0,1.838,1.307q2.665,0,4.564-3.146a11.252,11.252,0,0,0,1.718-5.463Zm6.7.224a14.078,14.078,0,0,1-4.029,9.409,12.518,12.518,0,0,1-9.424,3.964q-4.682,0-7.111-3.019a9.625,9.625,0,0,1-1.955-5.619,12.307,12.307,0,0,1,3.674-9.351A13.829,13.829,0,0,1,70.841,6.451a7.436,7.436,0,0,1,6.283,2.782A9.543,9.543,0,0,1,78.96,15.8" transform="translate(39.209 4.371)" fill="#1ab7ea"/>
    </g>
  </g>
</svg>